# xmcd
#
# Track frame offsets: 
#        150
#        15352
#        31267
#        46083
#        62891
#        78685
#
# Disc length: 1308 seconds
#
# Revision: 0
# Processed by: cddbd v1.5.2PL0 Copyright (c) Steve Scherf et al.
# Submitted via: ExactAudioCopyFreeDBPlugin 1.0
#
DISCID=3f051a06
DTITLE=Amber Hayes - C'mon
DYEAR=2010
DGENRE=Country
TTITLE0=C'mon
TTITLE1=Easy on me
TTITLE2=Right as Rain
TTITLE3=Can't take it back
TTITLE4=Wait
TTITLE5=Home
EXTD=
EXTT0=
EXTT1=
EXTT2=
EXTT3=
EXTT4=
EXTT5=
PLAYORDER=
